<?xml version="1.0" standalone="no"?>
<!DOCTYPE svg PUBLIC "-//W3C//DTD SVG 20010904//EN"
 "http://www.w3.org/TR/2001/REC-SVG-20010904/DTD/svg10.dtd">
<svg version="1.0" xmlns="http://www.w3.org/2000/svg"
 width="512.000000pt" height="512.000000pt" viewBox="0 0 512.000000 512.000000"
 preserveAspectRatio="xMidYMid meet">

<g transform="translate(0.000000,512.000000) scale(0.100000,-0.100000)"
fill="currentColor" stroke="none">
<path d="M94 4846 c-17 -8 -44 -31 -60 -52 l-29 -37 0 -487 0 -487 29 -37 c51
-67 44 -66 561 -66 444 0 468 1 504 20 22 11 50 36 62 57 24 38 24 38 27 433
2 217 0 410 -3 428 -8 45 -38 72 -78 72 -29 0 -57 -24 -267 -235 -129 -129
-239 -235 -245 -235 -6 0 -53 43 -105 96 -104 105 -140 127 -179 113 -34 -14
-50 -38 -51 -78 0 -31 14 -49 148 -183 133 -132 152 -148 182 -148 31 0 53 19
230 195 107 107 199 195 203 195 4 0 7 -128 7 -285 l0 -285 -435 0 -435 0 0
430 0 430 299 0 c307 0 352 5 371 40 17 32 11 75 -13 98 -23 22 -28 22 -358
22 -259 -1 -341 -4 -365 -14z"/>
<path d="M1591 4769 c-55 -22 -68 -83 -26 -124 l24 -25 1314 0 1314 0 21 23
c27 29 28 77 3 108 l-19 24 -1304 2 c-822 1 -1312 -2 -1327 -8z"/>
<path d="M1565 4325 c-33 -32 -33 -75 1 -109 l27 -26 1728 0 c1245 0 1735 3
1752 11 26 12 47 47 47 78 0 10 -12 30 -26 45 l-27 26 -1739 0 -1739 0 -24
-25z"/>
<path d="M1565 3895 c-43 -42 -28 -103 29 -125 36 -13 1554 -14 1590 0 57 21
70 86 26 130 -20 20 -37 20 -820 20 l-801 0 -24 -25z"/>
<path d="M94 3136 c-17 -8 -44 -31 -60 -52 l-29 -37 0 -487 0 -487 29 -37 c51
-67 44 -66 562 -66 524 0 513 -1 562 73 l27 41 3 395 c2 218 0 411 -3 429 -8
45 -38 72 -78 72 -29 0 -57 -24 -267 -235 -129 -129 -239 -235 -245 -235 -6 0
-53 43 -105 96 -104 105 -140 127 -179 113 -34 -14 -50 -38 -51 -78 0 -31 14
-49 148 -183 133 -132 152 -148 182 -148 31 0 53 19 230 195 107 107 199 195
203 195 4 0 7 -128 7 -285 l0 -285 -435 0 -435 0 0 430 0 430 305 0 c320 0
353 4 369 45 13 34 6 72 -17 93 -23 22 -28 22 -358 22 -259 -1 -341 -4 -365
-14z"/>
<path d="M1591 3059 c-55 -22 -68 -83 -26 -124 l24 -25 1314 0 1314 0 21 23
c27 29 28 77 3 108 l-19 24 -1304 2 c-822 1 -1312 -2 -1327 -8z"/>
<path d="M1566 2615 c-17 -16 -26 -34 -26 -55 0 -21 9 -39 26 -55 l27 -25
1728 0 c1263 0 1735 3 1753 11 35 16 52 61 37 98 -7 15 -24 33 -37 40 -18 8
-490 11 -1753 11 l-1728 0 -27 -25z"/>
<path d="M1565 2185 c-43 -42 -28 -103 29 -125 36 -13 1554 -14 1590 0 57 21
70 86 26 130 -20 20 -37 20 -820 20 l-801 0 -24 -25z"/>
<path d="M94 1426 c-17 -8 -44 -31 -60 -52 l-29 -37 0 -487 0 -487 29 -37 c51
-67 44 -66 562 -66 524 0 513 -1 562 73 l27 41 0 475 0 476 -24 38 c-12 21
-40 46 -62 57 -36 19 -60 20 -506 20 -372 -1 -474 -4 -499 -14z m936 -576 l0
-430 -435 0 -435 0 0 430 0 430 435 0 435 0 0 -430z"/>
<path d="M1591 1349 c-55 -22 -68 -83 -26 -124 l24 -25 1314 0 1314 0 21 23
c27 29 28 77 3 108 l-19 24 -1304 2 c-822 1 -1312 -2 -1327 -8z"/>
<path d="M1566 904 c-34 -34 -34 -77 -1 -109 l24 -25 1739 0 1739 0 27 26 c14
15 26 35 26 45 0 31 -21 66 -47 78 -17 8 -507 11 -1752 11 l-1728 0 -27 -26z"/>
<path d="M1565 475 c-43 -42 -28 -103 29 -125 36 -13 1554 -14 1590 0 57 21
70 86 26 130 -20 20 -37 20 -820 20 l-801 0 -24 -25z"/>
</g>
</svg>
