<?xml version="1.0" standalone="no"?>
<!DOCTYPE svg PUBLIC "-//W3C//DTD SVG 20010904//EN"
 "http://www.w3.org/TR/2001/REC-SVG-20010904/DTD/svg10.dtd">
<svg version="1.0" xmlns="http://www.w3.org/2000/svg"
 width="512.000000pt" height="512.000000pt" viewBox="0 0 512.000000 512.000000"
 preserveAspectRatio="xMidYMid meet">

<g transform="translate(0.000000,512.000000) scale(0.100000,-0.100000)"
fill="currentColor" stroke="none">
<path d="M4230 5113 c-28 -10 -59 -45 -65 -74 l-7 -29 -395 0 -395 0 -29 -29
c-22 -23 -29 -39 -29 -69 0 -34 15 -63 94 -183 l94 -142 -94 -141 c-111 -166
-118 -194 -60 -252 l34 -34 391 0 391 0 0 -265 0 -265 -166 0 c-259 0 -264 -5
-264 -264 l0 -165 -395 -3 -395 -3 -27 -28 -28 -27 -3 -185 -3 -185 -395 0
-396 0 -29 -29 -29 -29 0 -181 0 -181 -381 0 c-326 0 -386 -2 -414 -16 -56
-26 -65 -60 -65 -248 l0 -165 -395 -3 -395 -3 -27 -28 -28 -27 -3 -825 -2
-825 -120 0 c-66 0 -130 -5 -144 -11 -60 -28 -71 -122 -20 -170 l26 -24 2498
0 2498 0 26 24 c51 48 40 142 -20 170 -14 6 -78 11 -144 11 l-120 0 0 1665 c0
1847 5 1711 -65 1741 -25 10 -79 14 -200 14 l-165 0 0 705 c0 524 -3 711 -12
730 -19 43 -80 65 -128 48z m-70 -528 l0 -215 -271 0 c-219 0 -270 3 -266 13
3 7 28 48 56 91 68 105 68 126 -4 233 -30 46 -55 85 -55 88 0 3 122 5 270 5
l270 0 0 -215z m428 -2772 l-3 -1598 -317 -3 -318 -2 0 1600 0 1600 320 0 320
0 -2 -1597z m-858 -213 l0 -1390 -317 2 -318 3 -3 1375 c-1 756 0 1381 3 1388
3 9 77 12 320 12 l315 0 0 -1390z m-850 -215 l0 -1175 -320 0 -320 0 0 1175 0
1175 320 0 320 0 0 -1175z m-852 -212 l-3 -958 -317 -3 -318 -2 0 960 0 960
320 0 320 0 -2 -957z m-858 -213 l0 -750 -317 2 -318 3 -3 735 c-1 404 0 741
3 748 3 9 77 12 320 12 l315 0 0 -750z"/>
<path d="M1755 3888 c-49 -44 -49 -127 0 -166 14 -11 57 -24 102 -32 43 -6 84
-15 91 -19 7 -4 -214 -163 -579 -416 -644 -446 -633 -437 -609 -511 15 -44 54
-74 96 -74 39 0 41 1 763 502 363 252 472 323 468 306 -18 -78 -29 -169 -23
-193 4 -15 19 -38 33 -51 46 -42 134 -28 163 26 15 29 81 385 82 449 3 110
-27 127 -296 171 -227 37 -257 37 -291 8z"/>
</g>
</svg>
